<?xml version="1.0" encoding="utf-8"?>
<!-- Generator: Adobe Illustrator 24.1.1, SVG Export Plug-In . SVG Version: 6.00 Build 0)  -->
<svg version="1.1" id="Layer_1" xmlns="http://www.w3.org/2000/svg" xmlns:xlink="http://www.w3.org/1999/xlink" x="0px" y="0px"
	 viewBox="0 0 1399 467" style="enable-background:new 0 0 1399 467;" xml:space="preserve">
<style type="text/css">
	.st0{fill:#FFFFFF;}
</style>
<g>
	<path class="st0" d="M41.2,234.6v47.3H33V163.9h28.5c12.1,0,21.4,2.8,27.8,8.4c6.4,5.6,9.6,13.8,9.6,24.7c0,11-3.6,20-10.7,27
		c-7.2,7.1-17.2,10.6-30.1,10.6H41.2z M41.2,171.4v55.7h16.8c10.6,0,18.7-2.5,24.3-7.6c5.5-5.1,8.3-12.3,8.3-21.5
		c0-17.7-10.2-26.6-30.5-26.6H41.2z"/>
	<path class="st0" d="M185.2,281.9l-15.7-34.6c-3.2-7.1-6.5-11.9-9.7-14.4c-3.2-2.4-7.3-3.7-12.2-3.7h-14.7v52.6h-8.2V163.9h32.8
		c10.4,0,18.6,2.8,24.6,8.4c6,5.6,8.9,13.1,8.9,22.3c0,8.5-2.4,15.6-7.3,21.3c-4.9,5.7-11.7,9.4-20.5,11v0.3
		c4.7,1.9,9.2,7.5,13.7,17l17.5,37.6H185.2z M132.9,171.4v50.6h20.3c9,0,16.2-2.4,21.4-7.1c5.3-4.7,7.9-11.2,7.9-19.4
		c0-7.5-2.4-13.4-7.2-17.7c-4.8-4.3-11.6-6.4-20.5-6.4H132.9z"/>
	<path class="st0" d="M266.9,284c-16.7,0-30-5.5-39.9-16.6c-9.9-11.1-14.9-25.5-14.9-43.2c0-18.8,5.1-33.9,15.3-45.2
		c10.2-11.3,24.1-17,41.7-17c15.9,0,28.8,5.4,38.7,16.3c9.9,10.9,14.8,25.2,14.8,42.9c0,19.5-5.1,34.9-15.2,46.1
		C297.3,278.4,283.8,284,266.9,284z M267.7,169.3c-13.7,0-25,5-33.9,14.9c-8.9,9.9-13.3,22.9-13.3,39c0,16.2,4.2,29.2,12.6,38.8
		c8.4,9.6,19.6,14.5,33.6,14.5c14.6,0,26.2-4.8,34.7-14.3c8.5-9.5,12.8-22.8,12.8-39.8c0-16.7-4.2-29.7-12.5-39.1
		C293.4,174,282.1,169.3,267.7,169.3z"/>
	<path class="st0" d="M370.5,241.3c0,28.5-9.9,42.7-29.6,42.7c-3.1,0-6.1-0.4-9-1.2v-7.9c3.2,1.1,6.3,1.6,9.1,1.6
		c7.6,0,13-2.9,16.4-8.6c3.3-5.7,5-14.7,5-26.8v-77.2h8.1V241.3z"/>
	<path class="st0" d="M400.2,281.9V163.9h55.2v7.5h-47v47.3H452v7.4h-43.6v48.4h49.7v7.4H400.2z"/>
	<path class="st0" d="M563,278.1c-9.6,4-19.5,5.9-29.9,5.9c-16.1,0-29.3-5.4-39.5-16.3c-10.2-10.8-15.3-25-15.3-42.4
		c0-19.2,5.5-34.5,16.6-46.1c11-11.6,25.1-17.3,42.1-17.3c9.1,0,17.7,1.5,26,4.4v8.6c-8.3-3.7-17-5.6-26.2-5.6
		c-14.8,0-26.9,5-36.1,15.1c-9.3,10-13.9,23.4-13.9,40.1c0,16.1,4.4,28.8,13.3,38.1c8.9,9.3,20.1,14,33.7,14
		c10.9,0,20.6-2.1,29.2-6.3V278.1z"/>
	<path class="st0" d="M621.3,171.4v110.6h-8.1V171.4h-34.1v-7.5h76.2v7.5H621.3z"/>
	<path class="st0" d="M720,281.9V163.9h43c13.2,0,23.3,2.4,30.4,7.2c7.1,4.8,10.6,11.6,10.6,20.4c0,6.4-2.2,11.9-6.5,16.7
		c-4.3,4.8-9.8,8.1-16.5,10v0.3c8.4,1,15.1,4.1,20.1,9.3c5,5.2,7.5,11.4,7.5,18.9c0,10.8-3.9,19.4-11.6,25.7
		c-7.7,6.3-18.3,9.5-31.7,9.5H720z M746.6,183.5v28h11.7c5.5,0,9.8-1.3,13-4c3.2-2.7,4.7-6.3,4.7-11c0-8.7-6.5-13-19.4-13H746.6z
		 M746.6,231.2v31.1H761c6.1,0,11-1.4,14.5-4.3c3.5-2.9,5.2-6.8,5.2-11.7c0-4.7-1.7-8.4-5.1-11.1c-3.4-2.7-8.2-4-14.4-4H746.6z"/>
	<path class="st0" d="M924.4,230.8c0,35.5-16.5,53.2-49.6,53.2c-32.1,0-48.1-17.3-48.1-52v-68.2h26.7v68.5
		c0,19.1,7.5,28.7,22.4,28.7c14.7,0,22-9.2,22-27.7v-69.5h26.6V230.8z"/>
	<path class="st0" d="M1056.3,281.9h-26.8l-48.7-74.2c-2.9-4.3-4.8-7.6-5.9-9.8h-0.3c0.4,4.2,0.7,10.5,0.7,19.1v64.9h-25.1V163.9
		h28.7l46.9,71.9c2.1,3.2,4.1,6.5,5.9,9.6h0.3c-0.4-2.7-0.7-8.2-0.7-16.2v-65.3h25.1V281.9z"/>
	<path class="st0" d="M1180.2,274c-11.5,6.6-25.9,10-43,10c-19,0-34-5.3-44.9-15.8c-11-10.5-16.4-25-16.4-43.4
		c0-18.6,6-33.7,17.9-45.4c12-11.7,27.9-17.5,47.8-17.5c12.5,0,23.5,1.7,33.1,5.2V192c-9.1-5.3-20.3-7.9-33.4-7.9
		c-11,0-20,3.6-27,10.7c-6.9,7.2-10.4,16.7-10.4,28.7c0,12.1,3.1,21.5,9.3,28.2c6.2,6.6,14.6,10,25.2,10c6.4,0,11.4-0.9,15.2-2.7
		v-23.1H1130v-21.2h50.2V274z"/>
	<path class="st0" d="M1274,281.9h-70.8V163.9h68.1v21.7h-41.5v26.3h38.6v21.6h-38.6v27h44.2V281.9z"/>
	<path class="st0" d="M1363.8,281.9H1293V163.9h68.1v21.7h-41.5v26.3h38.6v21.6h-38.6v27h44.2V281.9z"/>
</g>
</svg>
