<?xml version="1.0" encoding="utf-8"?>
<!-- Generator: Adobe Illustrator 24.1.1, SVG Export Plug-In . SVG Version: 6.00 Build 0)  -->
<svg version="1.1" id="Layer_1" xmlns="http://www.w3.org/2000/svg" xmlns:xlink="http://www.w3.org/1999/xlink" x="0px" y="0px"
	 viewBox="0 0 1194 255" style="enable-background:new 0 0 1194 255;" xml:space="preserve">
<style type="text/css">
	.st0{fill:#FFFFFF;}
</style>
<g>
	<path class="st0" d="M31.2,133.4v39.1h-6.7V75H48c10,0,17.7,2.3,23,7c5.3,4.6,8,11.4,8,20.4c0,9.1-3,16.5-8.9,22.3
		c-5.9,5.8-14.2,8.7-24.9,8.7H31.2z M31.2,81.2v46h13.9c8.8,0,15.5-2.1,20.1-6.3c4.6-4.2,6.9-10.1,6.9-17.8c0-14.6-8.4-22-25.2-22
		H31.2z"/>
	<path class="st0" d="M150.2,172.5l-13-28.6c-2.7-5.9-5.3-9.8-8-11.9c-2.7-2-6-3-10.1-3H107v43.5h-6.7V75h27.1
		c8.6,0,15.4,2.3,20.3,7c4.9,4.6,7.4,10.8,7.4,18.4c0,7-2,12.9-6.1,17.6c-4,4.7-9.7,7.8-16.9,9.1v0.3c3.9,1.5,7.6,6.2,11.3,14.1
		l14.5,31.1H150.2z M107,81.2V123h16.8c7.4,0,13.3-1.9,17.7-5.8c4.4-3.9,6.6-9.2,6.6-16c0-6.2-2-11.1-5.9-14.6
		c-3.9-3.5-9.6-5.3-16.9-5.3H107z"/>
	<path class="st0" d="M217.7,174.2c-13.8,0-24.8-4.6-32.9-13.7c-8.2-9.2-12.3-21.1-12.3-35.7c0-15.5,4.2-28,12.6-37.4
		c8.4-9.4,19.9-14,34.4-14c13.1,0,23.8,4.5,31.9,13.5c8.1,9,12.2,20.8,12.2,35.4c0,16.1-4.2,28.8-12.5,38.1
		C242.8,169.6,231.7,174.2,217.7,174.2z M218.4,79.5c-11.3,0-20.7,4.1-28,12.3c-7.3,8.2-11,18.9-11,32.2c0,13.4,3.5,24.1,10.4,32.1
		c6.9,8,16.2,11.9,27.7,11.9c12.1,0,21.6-3.9,28.6-11.8c7-7.9,10.5-18.8,10.5-32.9c0-13.8-3.4-24.5-10.3-32.3
		C239.6,83.4,230.2,79.5,218.4,79.5z"/>
	<path class="st0" d="M303.2,138.9c0,23.5-8.2,35.3-24.5,35.3c-2.5,0-5-0.3-7.4-1v-6.5c2.7,0.9,5.2,1.4,7.5,1.4
		c6.3,0,10.8-2.4,13.5-7.1c2.8-4.7,4.1-12.1,4.1-22.1V75h6.7V138.9z"/>
	<path class="st0" d="M327.8,172.5V75h45.6v6.2h-38.8v39.1h36v6.1h-36v40h41.1v6.1H327.8z"/>
	<path class="st0" d="M462.2,169.3c-7.9,3.3-16.1,4.9-24.7,4.9c-13.3,0-24.2-4.5-32.6-13.4c-8.4-9-12.6-20.6-12.6-35.1
		c0-15.8,4.6-28.5,13.7-38c9.1-9.5,20.7-14.3,34.7-14.3c7.5,0,14.6,1.2,21.5,3.6v7.1c-6.8-3.1-14.1-4.6-21.6-4.6
		c-12.2,0-22.2,4.1-29.9,12.4c-7.7,8.3-11.5,19.3-11.5,33.1c0,13.3,3.7,23.8,11,31.4c7.3,7.7,16.6,11.5,27.8,11.5
		c9,0,17-1.7,24.1-5.2V169.3z"/>
	<path class="st0" d="M510.4,81.2v91.3h-6.7V81.2h-28.2V75h63v6.2H510.4z"/>
	<path class="st0" d="M591.9,172.5V75h35.5c10.9,0,19.2,2,25.1,6c5.8,4,8.8,9.6,8.8,16.9c0,5.3-1.8,9.9-5.3,13.8
		c-3.6,3.9-8.1,6.7-13.6,8.2v0.3c6.9,0.9,12.5,3.4,16.6,7.7c4.1,4.3,6.2,9.5,6.2,15.6c0,8.9-3.2,16-9.6,21.3
		c-6.4,5.2-15.1,7.9-26.2,7.9H591.9z M613.9,91.2v23.1h9.7c4.5,0,8.1-1.1,10.7-3.3c2.6-2.2,3.9-5.2,3.9-9.1c0-7.2-5.3-10.7-16-10.7
		H613.9z M613.9,130.6v25.7h11.9c5.1,0,9.1-1.2,11.9-3.5c2.9-2.4,4.3-5.6,4.3-9.7c0-3.9-1.4-7-4.3-9.2c-2.8-2.2-6.8-3.3-11.9-3.3
		H613.9z"/>
	<path class="st0" d="M760.7,130.3c0,29.3-13.6,43.9-40.9,43.9c-26.5,0-39.7-14.3-39.7-42.9V75h22v56.6c0,15.8,6.2,23.7,18.5,23.7
		c12.1,0,18.2-7.6,18.2-22.8V75h22V130.3z"/>
	<path class="st0" d="M869.6,172.5h-22.2l-40.2-61.3c-2.4-3.6-4-6.3-4.9-8.1h-0.3c0.4,3.4,0.5,8.7,0.5,15.8v53.6h-20.7V75h23.7
		l38.7,59.4c1.8,2.7,3.4,5.3,4.9,8h0.3c-0.4-2.3-0.5-6.7-0.5-13.4V75h20.7V172.5z"/>
	<path class="st0" d="M971.9,166c-9.5,5.5-21.4,8.2-35.5,8.2c-15.7,0-28-4.3-37.1-13c-9-8.7-13.6-20.6-13.6-35.9
		c0-15.3,4.9-27.8,14.8-37.5s23-14.5,39.4-14.5c10.3,0,19.4,1.4,27.3,4.3v20.6c-7.5-4.4-16.7-6.5-27.6-6.5c-9.1,0-16.5,3-22.3,8.9
		c-5.7,5.9-8.6,13.8-8.6,23.7c0,10,2.6,17.8,7.7,23.3c5.1,5.5,12.1,8.2,20.8,8.2c5.3,0,9.4-0.7,12.5-2.2v-19h-19.5V117h41.5V166z"/>
	<path class="st0" d="M1049.4,172.5h-58.5V75h56.2v17.9h-34.3v21.7h31.9v17.8h-31.9v22.3h36.5V172.5z"/>
	<path class="st0" d="M1123.5,172.5H1065V75h56.2v17.9H1087v21.7h31.9v17.8H1087v22.3h36.5V172.5z"/>
</g>
</svg>
