<?xml version="1.0" encoding="utf-8"?>
<!-- Generator: Adobe Illustrator 24.1.1, SVG Export Plug-In . SVG Version: 6.00 Build 0)  -->
<svg version="1.1" id="Layer_1" xmlns="http://www.w3.org/2000/svg" xmlns:xlink="http://www.w3.org/1999/xlink" x="0px" y="0px"
	 viewBox="0 0 876 812" style="enable-background:new 0 0 876 812;" xml:space="preserve">
<style type="text/css">
	.st0{fill:#DB7D28;}
	.st1{display:none;fill:#1A2F3F;}
	.st2{fill:#FAAA31;}
	.st3{fill:#EB7735;}
	.st4{fill:none;stroke:#F99D31;stroke-width:20;stroke-miterlimit:10;}
	.st5{fill:#F58131;}
	.st6{fill:#F78F33;}
	.st7{fill:#FBAF31;}
	.st8{fill:#F68B20;}
	.st9{display:none;fill:#E77C3D;}
	.st10{display:none;fill:#E77B3D;}
	.st11{display:none;fill:#E8833E;}
	.st12{display:none;fill:#E9893F;}
	.st13{display:none;fill:#F0A652;}
	.st14{display:none;fill:#E9933F;}
</style>
<g id="Layer_2_1_">
	<polygon class="st0" points="212.8,13.8 437.6,175 662.2,13.1 840.5,133.3 840.5,431.1 437.4,783.4 34.5,431.8 34.5,134 	"/>
</g>
<g id="Layer_1_1_">
	
		<image style="display:none;overflow:visible;enable-background:new    ;" width="3898" height="2922" xlink:href="../../../../../../../Downloads/IMG_9561.jpg"  transform="matrix(0.2392 0 0 0.2808 -46.2914 -14.25)">
	</image>
	<rect y="-9" class="st1" width="902" height="831"/>
	<polygon class="st2" points="274,384.1 437.5,513 613.3,384.1 438,269 	"/>
	<polyline class="st3" points="623,298.7 840.5,146 836,428 623,626.2 	"/>
	<polyline class="st4" points="33,133.3 34.5,432 261.7,634.2 265.2,384.1 438,519 613.3,396 613.3,634.9 437.4,783.4 261.7,634.2 	
		"/>
	<line class="st4" x1="438" y1="501" x2="438" y2="777.5"/>
	<polyline class="st4" points="613.3,634.9 840.5,432 849,133.3 	"/>
	<polygon class="st5" points="443.7,521 607,408 607,634.2 443.7,772 	"/>
	<polygon class="st6" points="274,400 431,521 431,766 266.4,630 	"/>
	<polygon class="st6" points="39.5,427 39.5,146 261.7,305 255,618 	"/>
	<polyline class="st7" points="450,175 665,27 833,133.3 613.3,291 450,179 	"/>
	<polyline class="st7" points="430,175 215,27 47,133.3 266.7,291 430,179 	"/>
	<polygon class="st8" points="274,298.7 431,191 431,262 274,369 	"/>
	<polyline class="st3" points="449.2,262 607,369 607,298.7 443.7,191 443.7,262 	"/>
	<polygon class="st4" points="39.5,133.3 266.4,298.7 437.5,175 213.5,19 	"/>
	<polygon class="st4" points="663.5,19 437.5,175 613.3,298.7 840.5,133.3 	"/>
	<circle class="st9" cx="438" cy="777.5" r="11.5"/>
	<circle class="st10" cx="438" cy="422.4" r="11.5"/>
	<circle class="st11" cx="266.4" cy="298.7" r="11.5"/>
	<circle class="st12" cx="437.5" cy="175" r="11.5"/>
	<circle class="st13" cx="213.5" cy="19" r="11.5"/>
	<circle class="st14" cx="39.5" cy="133.3" r="11.5"/>
	<circle class="st14" cx="34.5" cy="432" r="11.5"/>
	<circle class="st11" cx="261.7" cy="634.2" r="11.5"/>
	<circle class="st10" cx="613.3" cy="634.9" r="11.5"/>
	<circle class="st10" cx="613.3" cy="298.7" r="11.5"/>
	<circle class="st14" cx="840.5" cy="432" r="11.5"/>
	<circle class="st14" cx="840.5" cy="133.3" r="11.5"/>
	<circle class="st13" cx="663.5" cy="19" r="11.5"/>
	<line class="st4" x1="266.4" y1="298.7" x2="261.7" y2="634.2"/>
	<polyline class="st4" points="265.2,384.1 437.5,262 437.5,175 	"/>
	<polyline class="st4" points="613.3,298.7 613.3,384.1 437.5,262 	"/>
</g>
</svg>
