<?xml version="1.0" encoding="utf-8"?>
<!-- Generator: Adobe Illustrator 24.1.1, SVG Export Plug-In . SVG Version: 6.00 Build 0)  -->
<svg version="1.1" xmlns="http://www.w3.org/2000/svg" xmlns:xlink="http://www.w3.org/1999/xlink" x="0px" y="0px"
	 viewBox="0 0 876 792" style="enable-background:new 0 0 876 792;" xml:space="preserve">
<style type="text/css">
	.st0{fill:#DB7D28;}
	.st1{display:none;fill:#1A2F3F;}
	.st2{fill:#E7923F;}
	.st3{fill:#EEAD43;}
	.st4{fill:#F4C657;}
	.st5{fill:#EBA141;}
	.st6{fill:#F6C948;}
	.st7{fill:#F4C647;}
	.st8{fill:#E6863E;}
	.st9{fill:#1A2F3F;}
	.st10{fill:none;stroke:#E9933F;stroke-width:9;stroke-miterlimit:10;}
	.st11{fill:none;stroke:#E77B3D;stroke-width:9;stroke-miterlimit:10;}
	.st12{fill:#E77C3D;}
	.st13{fill:#E77B3D;}
	.st14{fill:#E8833E;}
	.st15{fill:#E9893F;}
	.st16{fill:#F0A652;}
	.st17{fill:#E9933F;}
</style>
<g id="Layer_2">
	<polygon class="st0" points="212.8,13.8 437.6,175 662.2,13.1 840.5,133.3 840.5,431.1 437.4,783.4 34.5,431.8 34.5,134 	"/>
</g>
<g id="Layer_1">
	
		<image style="display:none;overflow:visible;enable-background:new    ;" width="3898" height="2922" xlink:href="../../../../../../../Downloads/IMG_9561.jpg"  transform="matrix(0.2392 0 0 0.2808 -46.2914 -14.25)">
	</image>
	<rect y="-9" class="st1" width="902" height="831"/>
	<polyline class="st2" points="437.6,784.1 437.6,422.4 261.7,298 261.7,634.9 	"/>
	<polygon class="st3" points="261.7,298 437.6,422.4 437.6,175 	"/>
	<polygon class="st4" points="34.5,134 261.7,298 437.6,175 212.8,13.8 	"/>
	<polygon class="st5" points="34.5,134 34.5,431.8 261.7,634.9 261.7,298 	"/>
	<path class="st6" d="M162.6,122.5"/>
	<path class="st6" d="M345.1,385.4"/>
	<path class="st6" d="M346.6,384.7"/>
	<path class="st6" d="M712.5,122.1"/>
	<path class="st6" d="M530,385"/>
	<path class="st6" d="M528.5,384.3"/>
	<polyline class="st2" points="613.3,634.2 613.3,297.3 437.4,421.7 437.4,783.4 	"/>
	<polygon class="st3" points="437.4,174.3 437.4,421.7 613.3,297.3 	"/>
	<polygon class="st7" points="662.2,13.1 437.4,174.3 613.3,297.3 840.5,133.3 	"/>
	<polygon class="st5" points="613.3,297.3 613.3,634.2 840.5,431.1 840.5,133.3 	"/>
	<path class="st6" d="M712.4,121.9"/>
	<path class="st6" d="M529.9,384.7"/>
	<path class="st6" d="M528.4,384.1"/>
	<path class="st6" d="M162.5,121.4"/>
	<path class="st6" d="M345,384.3"/>
	<path class="st6" d="M346.5,383.6"/>
	<polyline class="st8" points="613.3,634.2 613.3,297.3 437.4,421.7 437.4,783.4 613.3,634.2 	"/>
	<polygon class="st3" points="437.4,174.3 437.4,421.7 613.3,297.3 	"/>
	<polygon class="st4" points="662.2,13.1 437.4,174.3 613.3,297.3 840.5,133.3 	"/>
	<polygon class="st5" points="613.3,297.3 613.3,634.2 840.5,431.1 840.5,133.3 	"/>
	<path class="st9" d="M437.6,175"/>
	<polygon class="st3" points="261.7,298 437.4,421.7 613.3,297.3 437.6,175 	"/>
	<polygon class="st10" points="39.5,133.3 266.4,298.7 437.5,175 213.5,19 	"/>
	<polygon class="st10" points="663.5,19 437.5,175 613.3,298.7 840.5,133.3 	"/>
	<polyline class="st11" points="39.5,133.3 34.5,432 261.7,634.2 266.4,298.7 438,422.4 613.3,298.7 613.3,634.9 437.4,783.4 
		266.4,639 	"/>
	<line class="st11" x1="438" y1="422.4" x2="438" y2="777.5"/>
	<polyline class="st11" points="613.3,634.9 840.5,432 840.5,133.3 	"/>
	<circle class="st12" cx="438" cy="777.5" r="11.5"/>
	<circle class="st13" cx="438" cy="422.4" r="11.5"/>
	<circle class="st14" cx="266.4" cy="298.7" r="11.5"/>
	<circle class="st15" cx="437.5" cy="175" r="11.5"/>
	<circle class="st16" cx="213.5" cy="19" r="11.5"/>
	<circle class="st17" cx="39.5" cy="133.3" r="11.5"/>
	<circle class="st17" cx="34.5" cy="432" r="11.5"/>
	<circle class="st14" cx="261.7" cy="634.2" r="11.5"/>
	<circle class="st13" cx="613.3" cy="634.9" r="11.5"/>
	<circle class="st13" cx="613.3" cy="298.7" r="11.5"/>
	<circle class="st17" cx="840.5" cy="432" r="11.5"/>
	<circle class="st17" cx="840.5" cy="133.3" r="11.5"/>
	<circle class="st16" cx="663.5" cy="19" r="11.5"/>
</g>
</svg>
